<svg width="32" height="32" viewBox="0 0 32 32" fill="none" xmlns="http://www.w3.org/2000/svg">
<path d="M23.2 25.6667H8.80003C6.80003 25.6667 6.00003 24.8133 6.00003 22.6933V21.3067C6.00003 19.1867 6.80003 18.3333 8.80003 18.3333H23.2C25.2 18.3333 26 19.1867 26 21.3067V22.6933C26 24.8133 25.2 25.6667 23.2 25.6667Z" stroke="#FEDC5A" stroke-width="2" stroke-linecap="round" stroke-linejoin="round"/>
<path d="M20.5334 14.3333H11.4667C9.4667 14.3333 8.6667 13.48 8.6667 11.36V9.97333C8.6667 7.85333 9.4667 7 11.4667 7H20.5334C22.5334 7 23.3334 7.85333 23.3334 9.97333V11.36C23.3334 13.48 22.5334 14.3333 20.5334 14.3333Z" stroke="#FEDC5A" stroke-width="2" stroke-linecap="round" stroke-linejoin="round"/>
<path d="M16 29.3333V26.1333" stroke="#FEDC5A" stroke-width="2" stroke-linecap="round" stroke-linejoin="round"/>
<path d="M16 17.3333V14.6667" stroke="#FEDC5A" stroke-width="2" stroke-linecap="round" stroke-linejoin="round"/>
<path d="M16 2.66666V6.25332" stroke="#292D32" stroke-width="2" stroke-linecap="round" stroke-linejoin="round"/>
</svg>
